<svg width="24" height="21" viewBox="0 0 24 21" fill="none" xmlns="http://www.w3.org/2000/svg">
<g clip-path="url(#clip0)">
<path d="M6.57692 19.5384C6.98052 19.5384 7.30769 19.2113 7.30769 18.8077C7.30769 18.4041 6.98052 18.0769 6.57692 18.0769C6.17333 18.0769 5.84615 18.4041 5.84615 18.8077C5.84615 19.2113 6.17333 19.5384 6.57692 19.5384Z" stroke="white" stroke-width="2" stroke-linecap="round" stroke-linejoin="round"/>
<path d="M14.6154 19.5384C15.019 19.5384 15.3462 19.2113 15.3462 18.8077C15.3462 18.4041 15.019 18.0769 14.6154 18.0769C14.2118 18.0769 13.8846 18.4041 13.8846 18.8077C13.8846 19.2113 14.2118 19.5384 14.6154 19.5384Z" stroke="white" stroke-width="2" stroke-linecap="round" stroke-linejoin="round"/>
<path d="M0.730766 4.19214H3.65384L5.6123 13.9771C5.67913 14.3136 5.86216 14.6158 6.12936 14.8309C6.39655 15.046 6.73089 15.1603 7.07384 15.1537H14.1769C14.5199 15.1603 14.8542 15.046 15.1214 14.8309C15.3886 14.6158 15.5716 14.3136 15.6385 13.9771L16.8077 7.84599H4.38461" stroke="white" stroke-width="2" stroke-linecap="round" stroke-linejoin="round"/>
</g>
<circle cx="16.0769" cy="7.8461" r="6.11538" fill="#EE6F00" stroke="#EE6F00" stroke-width="2"/>
<path d="M19.2557 13H14.3582V11.9941L16.6532 9.55273C16.9917 9.1849 17.2261 8.87891 17.3563 8.63477C17.4898 8.38737 17.5565 8.16276 17.5565 7.96094C17.5565 7.65495 17.48 7.41406 17.327 7.23828C17.1773 7.0625 16.9608 6.97461 16.6776 6.97461C16.3618 6.97461 16.1177 7.08691 15.9452 7.31152C15.7759 7.53288 15.6913 7.80957 15.6913 8.1416H14.2166C14.2166 7.71191 14.3176 7.31966 14.5194 6.96484C14.7212 6.60677 15.0077 6.32194 15.3788 6.11035C15.7531 5.89551 16.1958 5.78809 16.7069 5.78809C17.4621 5.78809 18.0383 5.96875 18.4354 6.33008C18.8358 6.69141 19.036 7.18783 19.036 7.81934C19.036 8.30111 18.8911 8.75684 18.6014 9.18652C18.315 9.61296 17.9292 10.0752 17.4442 10.5732L16.2625 11.8135H19.2557V13Z" fill="white"/>
<defs>
<clipPath id="clip0">
<rect width="17.5385" height="17.5385" fill="white" transform="translate(0 3.46143)"/>
</clipPath>
</defs>
</svg>
